<?xml version="1.0" standalone="no"?>
<!DOCTYPE svg PUBLIC "-//W3C//DTD SVG 20010904//EN"
 "http://www.w3.org/TR/2001/REC-SVG-20010904/DTD/svg10.dtd">
<svg version="1.0" xmlns="http://www.w3.org/2000/svg"
 viewBox="0 0 2600.000000 2600.000000"
 preserveAspectRatio="xMidYMid meet">
<metadata>
Created by potrace 1.15, written by Peter Selinger 2001-2017
</metadata>
<g transform="translate(0.000000,2600.000000) scale(0.100000,-0.100000)"
fill="#000000" stroke="none">
<path d="M17150 19081 c-51 -17 -2090 -946 -2223 -1013 -117 -59 -209 -173
-236 -293 -17 -76 -319 -1733 -327 -1792 -9 -71 18 -186 59 -251 18 -28 420
-443 906 -936 849 -860 876 -886 950 -923 67 -33 86 -38 166 -41 70 -3 104 1
150 16 52 17 2107 952 2238 1018 89 46 175 143 206 234 21 62 341 1827 341
1882 0 74 -23 151 -63 216 -38 62 -1733 1784 -1802 1832 -98 67 -250 89 -365
51z m568 -1435 c288 -290 520 -531 515 -536 -4 -4 -312 -146 -683 -315 l-675
-308 -527 534 c-289 294 -524 536 -522 538 9 10 1350 620 1359 618 6 -1 246
-240 533 -531z m-1413 -1774 l27 -32 -66 -362 c-37 -200 -68 -364 -70 -365 -1
-2 -219 217 -483 485 l-481 488 64 355 c36 195 67 359 69 366 4 11 872 -853
940 -935z m2095 371 c0 -38 -127 -704 -136 -713 -10 -10 -1236 -572 -1239
-568 -2 2 27 167 64 368 l68 365 614 282 c338 155 617 282 622 282 4 1 7 -7 7
-16z"/>
<path d="M6829 12777 c-151 -52 -246 -161 -279 -322 -13 -64 -9 -330 11 -620
128 -1918 897 -3677 2174 -4974 105 -106 186 -194 181 -196 -6 -2 -114 -15
-241 -29 -604 -70 -1291 -184 -1765 -293 -898 -205 -1425 -438 -1662 -732
-142 -177 -196 -379 -152 -574 111 -492 734 -820 2085 -1096 2709 -553 7568
-653 11000 -226 1547 193 2604 464 3103 797 112 75 268 230 319 318 65 112 90
207 90 340 1 98 -3 127 -26 195 -116 350 -490 605 -1211 824 -366 111 -844
218 -1370 306 -148 25 -271 47 -273 49 -2 2 19 6 46 10 27 3 120 27 207 52
850 244 1550 804 1899 1519 165 337 232 605 242 960 10 358 -54 671 -202 984
-203 428 -577 814 -1010 1042 -55 29 -102 54 -104 55 -2 2 6 74 18 161 50 380
75 738 69 993 -3 164 -5 178 -30 233 -31 66 -111 155 -172 191 -22 13 -65 31
-95 40 -50 15 -599 16 -6420 16 l-6366 -1 -66 -22z m12294 -879 c-36 -491
-102 -913 -209 -1340 -258 -1027 -722 -1947 -1383 -2743 -154 -185 -571 -604
-746 -749 -888 -737 -1841 -1157 -2922 -1287 -224 -27 -751 -37 -984 -20 -885
68 -1720 347 -2494 834 -492 310 -986 743 -1376 1208 -759 903 -1266 1987
-1494 3199 -47 249 -88 571 -111 873 l-6 87 5865 0 5865 0 -5 -62z m678 -1654
c100 -77 139 -112 221 -202 370 -405 454 -970 220 -1490 -275 -611 -942 -1087
-1692 -1206 -100 -16 -341 -38 -348 -32 -2 3 39 58 91 123 460 579 842 1242
1124 1953 75 190 215 608 264 788 18 67 36 122 40 122 4 0 40 -25 80 -56z
m-2835 -4334 c1718 -146 3068 -396 3676 -682 59 -28 105 -55 102 -60 -8 -13
-112 -63 -221 -107 -821 -326 -2569 -592 -4643 -706 -789 -43 -1212 -55 -2160
-62 -1030 -7 -1700 6 -2625 52 -2284 114 -4199 411 -4964 770 -56 27 -101 52
-101 56 0 12 169 90 295 137 664 244 1797 446 3254 581 l314 30 176 -107 c191
-115 606 -329 791 -407 602 -254 1163 -398 1835 -472 230 -25 901 -25 1135 0
994 106 1888 414 2725 940 106 67 82 65 411 37z"/>
</g>
</svg>
