<?xml version="1.0" standalone="no"?>
<!DOCTYPE svg PUBLIC "-//W3C//DTD SVG 20010904//EN"
 "http://www.w3.org/TR/2001/REC-SVG-20010904/DTD/svg10.dtd">
<svg version="1.0" xmlns="http://www.w3.org/2000/svg"
 viewBox="0 0 2600.000000 2600.000000"
 preserveAspectRatio="xMidYMid meet">
<metadata>
Created by potrace 1.15, written by Peter Selinger 2001-2017
</metadata>
<g transform="translate(0.000000,2600.000000) scale(0.100000,-0.100000)"
fill="#000000" stroke="none">
<path d="M12907 22925 c-1341 -458 -2439 -834 -2441 -836 -1 -2 184 -806 413
-1785 l415 -1782 63 -43 c35 -23 73 -57 84 -75 14 -23 46 -174 113 -539 65
-350 99 -511 110 -524 9 -10 35 -53 59 -96 36 -68 47 -80 82 -93 60 -22 251
-19 445 8 160 22 178 22 630 14 256 -5 546 -7 645 -4 99 3 266 5 370 4 166 0
205 -3 310 -26 335 -73 373 -80 465 -82 109 -1 143 8 320 90 63 29 139 58 169
65 73 15 175 4 287 -32 50 -16 109 -29 131 -29 122 0 232 -45 276 -113 45 -69
51 -106 26 -173 -37 -99 -120 -173 -251 -224 l-67 -26 26 -40 c15 -21 54 -75
88 -119 34 -44 95 -136 134 -204 96 -165 117 -194 211 -296 44 -47 94 -107
112 -133 70 -102 95 -210 63 -271 -16 -32 -65 -77 -94 -86 -10 -3 -22 -18 -26
-32 -16 -63 -83 -113 -153 -113 -22 0 -30 -7 -39 -30 -13 -33 -77 -69 -125
-70 -17 0 -28 -6 -28 -13 0 -40 -98 -89 -180 -90 -77 0 -133 27 -232 116 -105
93 -141 116 -292 183 -252 114 -344 190 -491 414 -49 74 -97 142 -107 152 -25
25 -74 23 -383 -12 -353 -41 -559 -70 -1035 -146 -223 -36 -488 -76 -589 -89
-101 -14 -185 -26 -186 -27 -4 -5 351 -1267 358 -1274 3 -3 468 71 1034 164
565 94 1037 170 1048 169 16 0 904 278 1307 409 68 22 81 31 105 66 33 49 66
74 118 92 25 9 48 27 65 52 33 50 100 91 172 105 49 10 69 9 129 -6 70 -17 71
-17 90 4 33 35 99 63 163 69 54 4 66 10 109 48 60 53 101 67 185 62 50 -3 84
-12 132 -36 l66 -33 1704 541 c937 297 1705 542 1706 543 3 3 -1236 3981
-1242 3986 -6 6 -1599 231 -1634 231 -14 0 -126 -36 -249 -80 -123 -45 -227
-77 -231 -73 -4 4 -173 622 -375 1373 -202 751 -369 1366 -369 1367 -2 2
-1278 264 -1280 262 0 0 -1098 -376 -2439 -834z"/>
<path d="M9033 22101 c-67 -23 -119 -63 -151 -117 -29 -48 -67 -72 -163 -103
-124 -40 -283 -156 -386 -280 -138 -166 -200 -406 -190 -731 6 -179 24 -285
77 -440 64 -193 180 -391 329 -564 100 -115 142 -155 321 -303 163 -136 188
-163 251 -282 94 -177 169 -221 223 -129 l18 30 25 -44 c14 -23 60 -114 103
-200 l77 -156 -57 -21 c-294 -107 -603 -564 -664 -982 -76 -516 112 -1268 482
-1931 121 -216 206 -350 547 -858 171 -256 353 -533 402 -615 180 -298 347
-651 407 -857 14 -48 41 -160 61 -250 105 -482 155 -612 318 -828 40 -52 115
-138 168 -190 l96 -96 12 -81 c46 -317 213 -647 515 -1018 391 -481 593 -780
806 -1188 l82 -158 -7 -62 c-12 -112 -45 -283 -70 -371 -33 -115 -70 -185
-155 -298 -88 -115 -127 -194 -141 -289 -10 -64 -9 -95 10 -220 23 -161 26
-274 11 -365 -34 -190 -150 -440 -367 -789 -283 -457 -338 -571 -598 -1250
-133 -346 -221 -548 -361 -825 -136 -267 -201 -419 -269 -625 -87 -262 -118
-470 -86 -567 10 -31 7 -44 -29 -134 -94 -229 -135 -412 -128 -566 16 -304
231 -446 683 -448 164 -1 361 -17 445 -35 44 -10 149 -51 255 -100 99 -45 209
-92 245 -103 178 -58 340 -69 498 -34 51 12 100 18 110 15 36 -13 101 -64 207
-163 173 -161 211 -183 510 -288 590 -207 975 -270 1240 -202 142 36 231 104
289 222 80 159 62 220 -104 350 -116 92 -395 354 -553 522 -283 300 -366 399
-431 518 l-35 63 9 120 c41 501 160 950 513 1935 80 223 194 556 255 740 60
184 155 459 210 610 227 625 288 872 323 1314 14 185 6 533 -16 676 -38 246
-115 502 -247 815 l-55 130 -6 215 c-9 333 -62 700 -178 1228 -33 153 -78 365
-99 472 -43 214 -69 312 -189 691 -103 328 -126 424 -221 895 -44 215 -97 463
-119 552 -38 149 -41 171 -41 297 0 113 -2 135 -15 135 -8 0 -342 -54 -741
-120 -400 -66 -744 -120 -765 -120 -80 0 -69 -27 -286 749 l-197 703 -66 -6
c-533 -51 -700 -46 -910 29 -166 60 -305 154 -508 348 -73 70 -226 200 -340
289 -116 91 -271 225 -352 304 -147 143 -181 167 -280 199 -121 38 -210 117
-210 184 1 40 14 62 47 79 40 22 72 14 113 -27 28 -28 58 -45 107 -61 130 -43
179 -76 343 -235 88 -86 244 -220 360 -312 113 -88 266 -218 340 -288 169
-159 241 -214 355 -270 168 -83 323 -105 605 -86 384 26 730 68 1215 146 771
125 1359 200 1521 193 123 -5 158 -33 281 -218 55 -83 125 -174 163 -212 61
-61 84 -75 261 -161 128 -62 216 -112 259 -147 36 -29 82 -61 102 -71 83 -42
162 -9 137 59 -8 22 -8 22 20 7 79 -40 170 -23 157 31 -7 28 -9 27 33 13 80
-28 135 53 97 143 -7 16 -5 16 33 1 51 -20 82 -9 106 38 34 64 21 83 -194 305
-224 230 -329 353 -401 475 -78 129 -110 257 -74 293 19 19 35 23 146 35 105
10 134 27 144 78 14 75 -34 108 -176 120 -41 3 -113 18 -159 34 -46 16 -98 29
-115 29 -17 0 -67 -16 -111 -36 -265 -120 -319 -133 -495 -115 -63 7 -198 30
-300 52 -278 60 -343 65 -646 50 -195 -9 -328 -10 -539 -2 -431 16 -665 14
-839 -9 -315 -41 -457 -36 -572 20 -70 34 -93 61 -154 179 -52 100 -97 148
-365 387 -104 93 -314 291 -465 439 -249 245 -338 325 -423 379 -59 37 -157
66 -245 72 -107 8 -132 25 -132 89 0 86 77 112 239 81 101 -19 235 -82 336
-158 39 -29 192 -172 340 -318 293 -287 562 -536 571 -527 4 3 -21 157 -55
341 -34 184 -61 337 -61 339 0 3 -28 23 -63 46 -35 22 -72 53 -83 68 -14 18
-39 108 -73 253 -76 327 -66 300 -104 300 -31 1 -33 4 -96 138 -112 238 -165
366 -152 370 44 15 121 123 121 169 0 10 -70 317 -155 682 -150 645 -155 665
-194 725 -53 80 -87 159 -151 341 -105 303 -179 406 -382 528 -84 50 -244 100
-490 151 -245 52 -346 58 -435 27z"/>
<path d="M17050 15534 c-56 -15 -100 -47 -100 -72 0 -10 -5 -12 -17 -6 -10 4
-37 9 -61 12 -53 5 -88 -16 -109 -66 -8 -20 -16 -38 -17 -40 -2 -1 -25 5 -52
13 -98 30 -174 12 -199 -48 -12 -28 -17 -31 -52 -29 -70 5 -123 -65 -109 -142
21 -109 248 -148 311 -53 l16 25 36 -19 c21 -11 44 -19 53 -19 23 0 60 29 70
56 9 23 10 23 55 7 94 -32 171 3 163 74 -3 24 0 32 8 29 99 -38 201 18 220
120 8 43 -25 115 -65 143 -41 29 -84 34 -151 15z"/>
</g>
</svg>
