<?xml version="1.0" standalone="no"?>
<!DOCTYPE svg PUBLIC "-//W3C//DTD SVG 20010904//EN"
 "http://www.w3.org/TR/2001/REC-SVG-20010904/DTD/svg10.dtd">
<svg version="1.0" xmlns="http://www.w3.org/2000/svg"
 viewBox="0 0 2600.000000 2600.000000"
 preserveAspectRatio="xMidYMid meet">
<metadata>
Created by potrace 1.15, written by Peter Selinger 2001-2017
</metadata>
<g transform="translate(0.000000,2600.000000) scale(0.100000,-0.100000)"
fill="#000000" stroke="none">
<path d="M17112 17818 c-52 -28 -403 -319 -447 -371 -90 -105 -63 -247 48
-247 46 0 85 20 160 82 33 28 47 35 47 24 0 -9 -52 -314 -115 -678 -63 -365
-115 -672 -115 -683 0 -36 37 -82 74 -95 28 -9 44 -9 72 0 46 16 110 73 134
120 18 36 310 1690 310 1758 0 92 -83 136 -168 90z"/>
<path d="M9955 17788 c-541 -61 -1048 -370 -1350 -823 -160 -240 -259 -495
-306 -790 -21 -129 -16 -436 9 -575 54 -296 159 -548 332 -793 80 -113 284
-321 403 -409 257 -190 553 -310 892 -359 108 -15 375 -12 500 6 789 116 1416
703 1580 1478 70 329 51 661 -56 982 -234 704 -854 1204 -1591 1284 -113 13
-299 12 -413 -1z"/>
<path d="M13885 17346 c-224 -52 -361 -172 -419 -365 -73 -248 94 -568 373
-715 66 -34 786 -290 891 -317 87 -22 251 -18 335 9 348 108 486 479 298 802
-51 88 -171 205 -264 257 -66 37 -662 253 -869 315 -86 25 -264 33 -345 14z
m280 -290 c116 -32 722 -249 777 -278 112 -60 178 -164 178 -283 0 -87 -21
-136 -82 -191 -60 -56 -129 -78 -222 -71 -57 4 -141 29 -433 130 -199 69 -385
138 -413 152 -66 33 -131 99 -167 167 -23 44 -28 66 -28 128 0 64 4 82 28 122
66 113 216 164 362 124z"/>
<path d="M18728 15220 c-152 -24 -303 -103 -418 -220 -62 -63 -105 -125 -247
-356 -95 -154 -183 -307 -194 -340 -30 -82 -31 -202 -2 -265 59 -132 182 -200
358 -200 183 -1 379 89 512 235 47 51 340 511 396 621 51 102 63 221 31 317
-26 79 -109 158 -194 186 -79 26 -166 34 -242 22z m83 -231 c106 -36 145 -150
89 -259 -36 -70 -311 -506 -345 -547 -23 -28 -61 -55 -112 -80 -68 -34 -85
-38 -148 -37 -44 0 -81 6 -100 16 -88 47 -116 147 -68 243 52 101 325 527 363
565 89 89 225 131 321 99z"/>
<path d="M15505 14671 c-11 -5 -28 -18 -39 -29 -24 -28 -156 -414 -156 -458 0
-78 53 -143 106 -130 37 10 68 47 89 111 11 30 22 55 25 55 3 0 90 -218 194
-485 117 -300 197 -492 211 -505 25 -24 72 -26 102 -5 31 22 57 96 51 147 -3
24 -112 315 -242 648 -195 499 -241 610 -266 633 -32 28 -42 31 -75 18z"/>
<path d="M8983 13539 c-218 -19 -551 -107 -739 -194 -124 -57 -270 -160 -369
-259 -289 -292 -455 -729 -624 -1646 -17 -91 -166 -1211 -331 -2490 -165
-1279 -303 -2344 -306 -2367 l-6 -43 1851 0 c1776 0 1851 1 1851 18 0 22 339
3214 343 3225 1 4 362 -276 801 -623 439 -346 824 -646 856 -665 114 -69 237
-115 379 -140 124 -22 2840 -22 2976 0 163 26 259 69 347 153 108 103 155 243
145 436 -17 343 -210 559 -588 661 -58 16 -592 97 -1409 216 -723 105 -1318
193 -1321 197 -4 4 -622 707 -1374 1562 -1487 1691 -1431 1631 -1660 1769
-172 104 -363 170 -557 191 -107 11 -131 11 -265 -1z"/>
<path d="M20143 13460 c-47 -21 -83 -70 -83 -112 0 -16 12 -40 28 -58 23 -25
37 -31 93 -38 l66 -7 -349 -360 c-192 -198 -358 -373 -368 -390 -62 -94 24
-184 137 -144 20 6 190 175 489 486 253 261 464 485 471 497 7 11 12 35 13 53
1 85 -22 93 -262 93 -169 0 -198 -3 -235 -20z"/>
<path d="M13812 12334 c-267 -71 -406 -307 -331 -559 43 -145 163 -291 304
-370 90 -51 750 -280 849 -295 83 -12 148 -8 236 17 298 83 426 394 278 677
-43 82 -173 211 -257 255 -69 36 -676 252 -776 276 -76 19 -234 18 -303 -1z
m603 -359 c181 -63 346 -126 366 -140 168 -111 193 -314 52 -421 -51 -39 -132
-58 -199 -48 -62 9 -687 228 -740 259 -179 105 -202 345 -42 435 113 63 161
56 563 -85z"/>
<path d="M19317 11586 c-65 -18 -126 -62 -159 -116 -21 -34 -139 -454 -488
-1735 -253 -929 -467 -1714 -475 -1742 l-15 -52 -1678 -3 -1677 -3 -66 -22
c-238 -82 -399 -322 -375 -562 24 -230 181 -415 401 -471 77 -20 111 -20 1830
-20 1715 0 1753 0 1829 20 43 11 103 34 135 52 72 41 158 127 199 199 37 65
72 191 72 259 0 115 -47 253 -115 336 -19 23 -35 49 -35 58 0 8 214 798 475
1754 355 1298 475 1753 475 1793 0 67 -33 140 -86 191 -67 63 -160 87 -247 64z"/>
<path d="M16823 11492 c-146 -52 -259 -196 -298 -377 -21 -100 -21 -630 0
-730 31 -143 108 -251 223 -307 60 -30 75 -33 152 -33 114 1 180 27 264 106
77 72 128 164 150 271 22 107 23 630 1 733 -31 144 -118 266 -233 322 -74 36
-181 42 -259 15z m188 -238 c33 -16 77 -68 98 -114 14 -30 16 -83 16 -356 l0
-320 -30 -59 c-41 -80 -94 -117 -172 -122 -47 -3 -66 1 -98 19 -56 33 -93 91
-105 163 -13 78 -13 522 0 600 26 160 167 251 291 189z"/>
</g>
</svg>
