<?xml version="1.0" standalone="no"?>
<!DOCTYPE svg PUBLIC "-//W3C//DTD SVG 20010904//EN"
 "http://www.w3.org/TR/2001/REC-SVG-20010904/DTD/svg10.dtd">
<svg version="1.0" xmlns="http://www.w3.org/2000/svg"
 viewBox="0 0 2600.000000 2600.000000"
 preserveAspectRatio="xMidYMid meet">
<metadata>
Created by potrace 1.15, written by Peter Selinger 2001-2017
</metadata>
<g transform="translate(0.000000,2600.000000) scale(0.100000,-0.100000)"
fill="#000000" stroke="none">
<path d="M11920 23195 c-199 -36 -342 -113 -471 -253 -69 -75 -123 -158 -164
-256 -14 -33 -465 -1248 -1003 -2699 l-977 -2638 -245 -3 c-199 -2 -268 -7
-365 -25 -275 -49 -406 -100 -514 -198 -273 -247 -332 -730 -130 -1070 75
-125 218 -236 475 -369 71 -37 130 -68 132 -70 3 -2 -325 -894 -331 -901 -4
-4 -197 51 -432 123 -477 146 -736 185 -1023 154 -347 -38 -572 -182 -654
-418 -31 -91 -32 -270 -1 -382 77 -277 210 -477 402 -605 83 -55 280 -147 416
-195 50 -17 178 -55 285 -85 230 -63 393 -120 428 -150 1 -1 -42 -123 -97
-271 -105 -283 -126 -362 -137 -509 -11 -151 25 -315 97 -436 16 -28 29 -51
29 -53 0 -8 -274 72 -480 139 -350 114 -454 137 -630 136 -235 -1 -406 -93
-490 -265 -54 -110 -74 -220 -73 -396 1 -132 4 -169 26 -251 34 -131 75 -206
159 -295 99 -104 180 -155 493 -309 642 -317 1136 -487 2270 -785 656 -172
847 -223 1050 -281 235 -68 544 -164 669 -210 l82 -30 18 -92 c65 -344 228
-1040 321 -1367 133 -472 265 -794 426 -1040 62 -94 148 -185 425 -450 120
-115 188 -208 259 -357 147 -307 211 -647 235 -1238 33 -840 30 -784 84 -1520
38 -508 46 -694 46 -1090 0 -198 5 -400 10 -450 23 -219 90 -357 214 -441 61
-41 189 -84 252 -84 25 0 1059 130 2297 289 1239 160 2299 295 2357 301 213
23 309 58 396 144 104 104 144 227 151 461 4 134 2 181 -17 290 -32 188 -69
307 -258 831 -431 1190 -536 1593 -616 2359 -40 382 -47 477 -46 706 0 283 28
552 120 1154 42 274 77 537 95 716 48 488 37 1153 -35 2029 -103 1256 -200
1860 -435 2713 -187 678 -229 1092 -154 1537 30 180 92 417 214 810 170 551
222 781 232 1015 9 222 -40 418 -173 684 -113 228 -226 399 -554 841 -108 146
-235 319 -282 385 -48 66 -116 158 -151 204 l-65 84 78 231 c43 127 216 638
384 1135 169 498 316 944 326 992 31 137 43 309 31 420 -24 215 -88 357 -220
490 -94 94 -174 145 -293 185 -40 14 -939 229 -1998 479 -1059 250 -1957 464
-1995 474 -150 40 -338 50 -475 26z m346 -210 c49 -9 103 -20 119 -26 17 -5
905 -217 1975 -469 1763 -417 1952 -463 2028 -500 150 -72 249 -194 289 -356
25 -103 23 -330 -5 -454 -11 -52 -459 -1390 -996 -2972 l-975 -2877 -94 -148
c-52 -81 -141 -220 -198 -309 -57 -88 -216 -348 -354 -577 -137 -229 -251
-415 -252 -413 -1 1 508 1479 1132 3284 624 1806 1135 3292 1135 3303 0 40
-29 77 -72 93 -24 8 -1082 286 -2352 616 -2203 574 -2311 601 -2344 588 -23
-8 -41 -25 -53 -48 -9 -19 -452 -1191 -982 -2605 -531 -1413 -1222 -3253
-1536 -4089 -341 -907 -571 -1532 -571 -1552 0 -23 9 -43 28 -63 24 -27 83
-45 626 -200 329 -94 601 -172 603 -175 2 -2 -3 -30 -11 -62 -112 -435 -41
-1096 164 -1517 33 -69 43 -96 31 -92 -52 16 -1323 387 -1401 409 -134 37
-268 105 -334 169 -122 120 -170 309 -131 529 11 65 429 1203 1839 5009 2127
5742 1898 5127 1941 5205 92 164 246 272 433 304 79 13 225 11 318 -5z m1349
-2011 c1215 -316 2211 -577 2213 -579 3 -2 -2234 -6485 -2510 -7275 -43 -122
-160 -313 -244 -398 -38 -38 -84 -72 -118 -88 -194 -89 -386 -3 -750 333 -317
291 -377 337 -617 462 -646 337 -1237 401 -1694 182 -166 -80 -285 -186 -367
-329 -16 -29 -35 -51 -42 -49 -6 2 -253 73 -548 158 -296 84 -538 157 -538
161 0 7 214 578 2037 5428 520 1383 950 2527 955 2543 6 15 11 27 12 27 1 0
997 -259 2211 -576z"/>
<path d="M13903 22264 c-69 -35 -99 -142 -59 -209 72 -121 240 -84 263 58 7
44 -26 119 -61 142 -38 25 -104 29 -143 9z m93 -109 c12 -30 -5 -65 -31 -65
-26 0 -40 27 -30 60 8 24 53 28 61 5z"/>
<path d="M13334 21890 c-54 -22 -71 -99 -31 -145 19 -22 81 -42 487 -150 256
-69 480 -125 498 -125 47 0 82 37 82 88 0 76 10 72 -516 213 -263 71 -483 128
-489 128 -5 0 -20 -4 -31 -9z"/>
</g>
</svg>
